<svg xmlns="http://www.w3.org/2000/svg" xmlns:xlink="http://www.w3.org/1999/xlink" width="1081" zoomAndPan="magnify" viewBox="0 0 810.75 253.499997" height="338" preserveAspectRatio="xMidYMid meet" version="1.0"><defs><g/><clipPath id="d9a037970e"><path d="M 0.671875 0 L 136.15625 0 L 136.15625 253 L 0.671875 253 Z M 0.671875 0 " clip-rule="nonzero"/></clipPath></defs><g clip-path="url(#d9a037970e)"><path fill="#eb6e66" d="M 97.621094 8.449219 C 99.636719 5.726562 101.527344 2.898438 103.296875 0 C 108.476562 8.773438 112.953125 18.058594 115.546875 27.945312 C 120.535156 46.898438 121.808594 67.460938 115.179688 86.183594 C 112.53125 92.472656 114.097656 99.597656 117.199219 105.414062 C 121.230469 112.695312 126.25 119.449219 132.328125 125.140625 C 134.289062 127.074219 137.015625 129.539062 135.765625 132.632812 C 133.886719 138.46875 127.238281 139.636719 122.542969 142.261719 C 120.433594 147.011719 126.230469 150.367188 127.84375 154.355469 C 128.4375 158.644531 124.203125 161.324219 120.828125 162.824219 C 122.515625 164.847656 124.84375 167.09375 124.25 170.003906 C 123.480469 174.441406 118.097656 175.507812 116.472656 179.402344 C 116.601562 184.546875 119.488281 189.527344 118.195312 194.71875 C 117.308594 199.035156 114.289062 202.882812 110.109375 204.382812 C 102.261719 207.550781 93.695312 204.925781 85.902344 202.890625 C 76.878906 200.570312 68.5625 195.804688 59.253906 194.589844 C 52.421875 193.652344 44.636719 195.796875 40.511719 201.660156 C 35.128906 208.691406 34.863281 218.566406 37.789062 226.667969 C 41.402344 237.089844 48.773438 245.59375 56.695312 253.003906 C 51.660156 250.574219 47.710938 246.476562 43.464844 242.941406 C 29.636719 230.910156 20.015625 214.363281 15.578125 196.59375 C 9.800781 173.078125 12.816406 147.691406 22.839844 125.746094 C 30.761719 109.554688 42.125 95.207031 55.355469 83.054688 C 63.5625 75.148438 72.449219 68.015625 81.132812 60.652344 C 78.796875 64.222656 75.675781 67.15625 72.878906 70.351562 C 63.417969 81.121094 53.359375 91.441406 45.296875 103.371094 C 35.863281 116.652344 27.765625 131.1875 23.832031 147.128906 C 21.207031 157.421875 19.613281 168.136719 20.941406 178.75 C 24.390625 170.933594 28.902344 163.511719 35.148438 157.613281 C 48.074219 144.597656 64.820312 136.570312 79.015625 125.167969 C 92.265625 114.617188 102.808594 100.441406 108.230469 84.289062 C 112.402344 71.328125 113.070312 57.390625 111.382812 43.933594 C 109.824219 33.605469 107.359375 23.25 102.5625 13.917969 C 96.703125 21.363281 90.183594 28.332031 82.730469 34.195312 C 69.71875 44.503906 55.769531 53.542969 42.941406 64.09375 C 30.726562 73.628906 19.851562 85.335938 12.9375 99.347656 C 4.628906 116.726562 4.90625 136.929688 9.507812 155.304688 C 1.898438 142.71875 -0.734375 127.386719 1.53125 112.898438 C 3.667969 97.644531 11.9375 83.902344 22.375 72.882812 C 32.753906 62.03125 44.710938 52.835938 57.097656 44.421875 C 71.761719 33.910156 87.09375 23.433594 97.621094 8.449219 Z M 97.621094 8.449219 " fill-opacity="1" fill-rule="nonzero"/></g><path fill="#fefefe" d="M 88.644531 126.566406 C 98.308594 117.691406 106.871094 107.125 111.769531 94.828125 C 111.605469 99.496094 112.054688 104.253906 114.136719 108.496094 C 117.914062 117.65625 125.285156 124.476562 131.21875 132.179688 C 127.632812 136.128906 122.203125 136.847656 117.65625 139.113281 C 115.648438 139.96875 114.621094 141.945312 113.804688 143.851562 C 115.59375 142.988281 117.34375 142.039062 119.03125 140.980469 C 116.601562 145.777344 120.023438 150.5625 122.3125 154.640625 C 115.382812 157.84375 108.191406 160.46875 101.113281 163.339844 C 106.898438 166.101562 115.035156 162.871094 119.214844 168.824219 C 116.492188 171.503906 113.164062 174.171875 112.503906 178.1875 C 111.796875 183.324219 114.539062 188.46875 113.097656 193.558594 C 111.734375 198.015625 106.855469 200.542969 102.378906 199.882812 C 89.917969 198.703125 78.628906 192.691406 66.636719 189.5625 C 59.675781 187.472656 51.917969 187.585938 45.28125 190.714844 C 34.742188 195.261719 29.414062 208.074219 31.496094 219.039062 C 26.140625 209.140625 23.316406 197.460938 26.234375 186.351562 C 29.09375 173.898438 38.246094 164.269531 47.792969 156.40625 C 60.878906 145.730469 76.402344 138.328125 88.644531 126.566406 Z M 88.644531 126.566406 " fill-opacity="1" fill-rule="nonzero"/><g fill="#eb6e66" fill-opacity="1"><g transform="translate(178.99579, 143.936304)"><g><path d="M 17.8125 -41.453125 L 17.8125 -40.5 C 17.019531 -40.5 16.503906 -40.300781 16.265625 -39.90625 C 16.035156 -39.507812 15.921875 -38.972656 15.921875 -38.296875 L 15.921875 -5.203125 L 42.390625 -5.203125 C 44.234375 -5.203125 45.15625 -5.988281 45.15625 -7.5625 L 46.09375 -7.5625 L 46.09375 1.734375 L 45.15625 1.734375 C 45.15625 1.046875 44.929688 0.582031 44.484375 0.34375 C 44.035156 0.113281 43.363281 0 42.46875 0 L 7.40625 0 L 7.40625 -0.953125 C 8.144531 -0.953125 8.644531 -1.117188 8.90625 -1.453125 C 9.164062 -1.796875 9.296875 -2.257812 9.296875 -2.84375 L 9.296875 -38.609375 C 9.296875 -39.128906 9.175781 -39.570312 8.9375 -39.9375 C 8.707031 -40.3125 8.195312 -40.5 7.40625 -40.5 L 7.40625 -41.453125 Z M 17.8125 -41.453125 "/></g></g></g><g fill="#eb6e66" fill-opacity="1"><g transform="translate(227.138799, 143.936304)"><g><path d="M 9.453125 -17.421875 C 9.453125 -15.472656 9.804688 -13.679688 10.515625 -12.046875 C 11.222656 -10.421875 12.21875 -9.003906 13.5 -7.796875 C 14.789062 -6.585938 16.328125 -5.640625 18.109375 -4.953125 C 19.898438 -4.273438 21.898438 -3.9375 24.109375 -3.9375 C 26.265625 -3.9375 28.25 -4.273438 30.0625 -4.953125 C 31.875 -5.640625 33.421875 -6.570312 34.703125 -7.75 C 35.992188 -8.9375 36.992188 -10.359375 37.703125 -12.015625 C 38.410156 -13.671875 38.765625 -15.472656 38.765625 -17.421875 C 38.765625 -19.203125 38.421875 -20.90625 37.734375 -22.53125 C 37.054688 -24.164062 36.085938 -25.585938 34.828125 -26.796875 C 33.566406 -28.003906 32.03125 -28.960938 30.21875 -29.671875 C 28.40625 -30.378906 26.34375 -30.734375 24.03125 -30.734375 C 21.875 -30.734375 19.898438 -30.390625 18.109375 -29.703125 C 16.328125 -29.023438 14.789062 -28.09375 13.5 -26.90625 C 12.21875 -25.726562 11.222656 -24.320312 10.515625 -22.6875 C 9.804688 -21.0625 9.453125 -19.304688 9.453125 -17.421875 Z M 24.109375 -35.140625 C 27.160156 -35.140625 29.90625 -34.664062 32.34375 -33.71875 C 34.789062 -32.78125 36.878906 -31.507812 38.609375 -29.90625 C 40.335938 -28.300781 41.660156 -26.40625 42.578125 -24.21875 C 43.503906 -22.039062 43.96875 -19.742188 43.96875 -17.328125 C 43.96875 -14.859375 43.492188 -12.535156 42.546875 -10.359375 C 41.597656 -8.179688 40.257812 -6.289062 38.53125 -4.6875 C 36.800781 -3.082031 34.710938 -1.820312 32.265625 -0.90625 C 29.828125 0.0078125 27.109375 0.46875 24.109375 0.46875 C 21.117188 0.46875 18.398438 0.0078125 15.953125 -0.90625 C 13.515625 -1.820312 11.425781 -3.082031 9.6875 -4.6875 C 7.957031 -6.289062 6.617188 -8.179688 5.671875 -10.359375 C 4.722656 -12.535156 4.25 -14.859375 4.25 -17.328125 C 4.25 -19.859375 4.734375 -22.210938 5.703125 -24.390625 C 6.679688 -26.566406 8.035156 -28.441406 9.765625 -30.015625 C 11.503906 -31.597656 13.59375 -32.847656 16.03125 -33.765625 C 18.476562 -34.679688 21.171875 -35.140625 24.109375 -35.140625 Z M 24.109375 -35.140625 "/></g></g></g><g fill="#eb6e66" fill-opacity="1"><g transform="translate(275.281808, 143.936304)"><g><path d="M 10.71875 -34.671875 L 10.71875 -33.71875 L 10.40625 -33.71875 C 9.40625 -33.71875 8.90625 -33.300781 8.90625 -32.46875 C 8.90625 -32.207031 8.992188 -31.878906 9.171875 -31.484375 C 9.359375 -31.085938 9.554688 -30.679688 9.765625 -30.265625 L 20.953125 -6.375 L 31.046875 -30.5 C 31.148438 -30.8125 31.28125 -31.148438 31.4375 -31.515625 C 31.59375 -31.890625 31.671875 -32.234375 31.671875 -32.546875 C 31.671875 -32.859375 31.550781 -33.128906 31.3125 -33.359375 C 31.082031 -33.597656 30.625 -33.71875 29.9375 -33.71875 L 29.9375 -34.671875 L 37.984375 -34.671875 L 37.984375 -33.71875 C 37.347656 -33.664062 36.898438 -33.378906 36.640625 -32.859375 C 36.378906 -32.335938 36.007812 -31.523438 35.53125 -30.421875 L 24.34375 -3.859375 C 23.925781 -2.960938 23.71875 -2.332031 23.71875 -1.96875 C 23.71875 -1.289062 24.164062 -0.953125 25.0625 -0.953125 L 25.453125 -0.953125 L 25.453125 0 L 16.3125 0 L 16.3125 -0.953125 C 16.9375 -0.953125 17.328125 -1.015625 17.484375 -1.140625 C 17.648438 -1.273438 17.734375 -1.445312 17.734375 -1.65625 C 17.734375 -2.070312 17.535156 -2.6875 17.140625 -3.5 C 16.742188 -4.320312 16.390625 -5.097656 16.078125 -5.828125 L 3.78125 -32.15625 C 3.519531 -32.675781 3.21875 -33.066406 2.875 -33.328125 C 2.53125 -33.585938 2.046875 -33.71875 1.421875 -33.71875 L 1.421875 -34.671875 Z M 10.71875 -34.671875 "/></g></g></g><g fill="#eb6e66" fill-opacity="1"><g transform="translate(314.67871, 143.936304)"><g><path d="M 42.078125 -36.5625 L 42.078125 -28.359375 L 41.125 -28.359375 C 41.125 -29.097656 40.976562 -29.597656 40.6875 -29.859375 C 40.40625 -30.128906 39.894531 -30.265625 39.15625 -30.265625 L 14.421875 -30.265625 L 14.421875 -20.015625 L 31.828125 -20.015625 C 32.566406 -20.015625 33.078125 -20.144531 33.359375 -20.40625 C 33.648438 -20.664062 33.796875 -21.164062 33.796875 -21.90625 L 34.75 -21.90625 L 34.75 -13.703125 L 33.796875 -13.703125 C 33.796875 -14.441406 33.648438 -14.941406 33.359375 -15.203125 C 33.078125 -15.472656 32.566406 -15.609375 31.828125 -15.609375 L 14.421875 -15.609375 L 14.421875 -4.40625 L 40.03125 -4.40625 C 40.757812 -4.40625 41.269531 -4.535156 41.5625 -4.796875 C 41.851562 -5.066406 42 -5.566406 42 -6.296875 L 42.9375 -6.296875 L 42.9375 1.890625 L 42 1.890625 C 42 1.148438 41.851562 0.648438 41.5625 0.390625 C 41.269531 0.128906 40.757812 0 40.03125 0 L 7.40625 0 L 7.40625 -0.953125 C 8.195312 -0.953125 8.695312 -1.09375 8.90625 -1.375 C 9.113281 -1.664062 9.21875 -2.257812 9.21875 -3.15625 L 9.21875 -31.515625 C 9.21875 -32.410156 9.097656 -33 8.859375 -33.28125 C 8.628906 -33.570312 8.144531 -33.71875 7.40625 -33.71875 L 7.40625 -34.671875 L 39.15625 -34.671875 C 39.894531 -34.671875 40.40625 -34.800781 40.6875 -35.0625 C 40.976562 -35.320312 41.125 -35.820312 41.125 -36.5625 Z M 42.078125 -36.5625 "/></g></g></g><g fill="#eb6e66" fill-opacity="1"><g transform="translate(362.821719, 143.936304)"><g/></g></g><g fill="#eb6e66" fill-opacity="1"><g transform="translate(386.932616, 143.936304)"><g><path d="M 13.796875 -41.453125 L 13.796875 -40.5 C 12.472656 -40.394531 11.8125 -40.023438 11.8125 -39.390625 C 11.8125 -39.179688 11.929688 -38.929688 12.171875 -38.640625 C 12.410156 -38.359375 12.738281 -37.925781 13.15625 -37.34375 L 24.03125 -22.53125 L 35.0625 -37.1875 C 35.59375 -37.925781 35.988281 -38.453125 36.25 -38.765625 C 36.507812 -39.078125 36.640625 -39.367188 36.640625 -39.640625 C 36.640625 -39.847656 36.507812 -40.039062 36.25 -40.21875 C 35.988281 -40.40625 35.539062 -40.5 34.90625 -40.5 L 34.90625 -41.453125 L 46.25 -41.453125 L 46.25 -40.5 C 45.519531 -40.5 44.890625 -40.25 44.359375 -39.75 C 43.835938 -39.25 43.050781 -38.289062 42 -36.875 L 27.109375 -17.171875 L 27.109375 -2.84375 C 27.109375 -2.257812 27.238281 -1.796875 27.5 -1.453125 C 27.757812 -1.117188 28.257812 -0.953125 29 -0.953125 L 29 0 L 18.59375 0 L 18.59375 -0.953125 C 19.332031 -0.953125 19.832031 -1.117188 20.09375 -1.453125 C 20.351562 -1.796875 20.484375 -2.257812 20.484375 -2.84375 L 20.484375 -17.171875 L 5.28125 -37.828125 C 4.539062 -38.816406 3.945312 -39.507812 3.5 -39.90625 C 3.0625 -40.300781 2.523438 -40.5 1.890625 -40.5 L 1.890625 -41.453125 Z M 13.796875 -41.453125 "/></g></g></g><g fill="#eb6e66" fill-opacity="1"><g transform="translate(432.160134, 143.936304)"><g><path d="M 9.453125 -17.421875 C 9.453125 -15.472656 9.804688 -13.679688 10.515625 -12.046875 C 11.222656 -10.421875 12.21875 -9.003906 13.5 -7.796875 C 14.789062 -6.585938 16.328125 -5.640625 18.109375 -4.953125 C 19.898438 -4.273438 21.898438 -3.9375 24.109375 -3.9375 C 26.265625 -3.9375 28.25 -4.273438 30.0625 -4.953125 C 31.875 -5.640625 33.421875 -6.570312 34.703125 -7.75 C 35.992188 -8.9375 36.992188 -10.359375 37.703125 -12.015625 C 38.410156 -13.671875 38.765625 -15.472656 38.765625 -17.421875 C 38.765625 -19.203125 38.421875 -20.90625 37.734375 -22.53125 C 37.054688 -24.164062 36.085938 -25.585938 34.828125 -26.796875 C 33.566406 -28.003906 32.03125 -28.960938 30.21875 -29.671875 C 28.40625 -30.378906 26.34375 -30.734375 24.03125 -30.734375 C 21.875 -30.734375 19.898438 -30.390625 18.109375 -29.703125 C 16.328125 -29.023438 14.789062 -28.09375 13.5 -26.90625 C 12.21875 -25.726562 11.222656 -24.320312 10.515625 -22.6875 C 9.804688 -21.0625 9.453125 -19.304688 9.453125 -17.421875 Z M 24.109375 -35.140625 C 27.160156 -35.140625 29.90625 -34.664062 32.34375 -33.71875 C 34.789062 -32.78125 36.878906 -31.507812 38.609375 -29.90625 C 40.335938 -28.300781 41.660156 -26.40625 42.578125 -24.21875 C 43.503906 -22.039062 43.96875 -19.742188 43.96875 -17.328125 C 43.96875 -14.859375 43.492188 -12.535156 42.546875 -10.359375 C 41.597656 -8.179688 40.257812 -6.289062 38.53125 -4.6875 C 36.800781 -3.082031 34.710938 -1.820312 32.265625 -0.90625 C 29.828125 0.0078125 27.109375 0.46875 24.109375 0.46875 C 21.117188 0.46875 18.398438 0.0078125 15.953125 -0.90625 C 13.515625 -1.820312 11.425781 -3.082031 9.6875 -4.6875 C 7.957031 -6.289062 6.617188 -8.179688 5.671875 -10.359375 C 4.722656 -12.535156 4.25 -14.859375 4.25 -17.328125 C 4.25 -19.859375 4.734375 -22.210938 5.703125 -24.390625 C 6.679688 -26.566406 8.035156 -28.441406 9.765625 -30.015625 C 11.503906 -31.597656 13.59375 -32.847656 16.03125 -33.765625 C 18.476562 -34.679688 21.171875 -35.140625 24.109375 -35.140625 Z M 24.109375 -35.140625 "/></g></g></g><g fill="#eb6e66" fill-opacity="1"><g transform="translate(480.303143, 143.936304)"><g><path d="M 15.515625 -34.671875 L 15.515625 -33.71875 C 14.835938 -33.71875 14.394531 -33.585938 14.1875 -33.328125 C 13.976562 -33.066406 13.875 -32.488281 13.875 -31.59375 L 13.875 -11.984375 C 13.875 -9.398438 14.84375 -7.410156 16.78125 -6.015625 C 18.726562 -4.628906 21.90625 -3.9375 26.3125 -3.9375 C 30.726562 -3.9375 33.90625 -4.628906 35.84375 -6.015625 C 37.789062 -7.410156 38.765625 -9.398438 38.765625 -11.984375 L 38.765625 -31.59375 C 38.765625 -32.488281 38.660156 -33.066406 38.453125 -33.328125 C 38.242188 -33.585938 37.796875 -33.71875 37.109375 -33.71875 L 37.109375 -34.671875 L 45.3125 -34.671875 L 45.3125 -33.71875 C 44.625 -33.71875 44.175781 -33.585938 43.96875 -33.328125 C 43.757812 -33.066406 43.65625 -32.488281 43.65625 -31.59375 L 43.65625 -10.953125 C 43.65625 -8.898438 43.179688 -7.148438 42.234375 -5.703125 C 41.285156 -4.265625 40.007812 -3.082031 38.40625 -2.15625 C 36.8125 -1.238281 34.960938 -0.570312 32.859375 -0.15625 C 30.753906 0.257812 28.570312 0.46875 26.3125 0.46875 C 24.113281 0.46875 21.972656 0.257812 19.890625 -0.15625 C 17.816406 -0.570312 15.960938 -1.226562 14.328125 -2.125 C 12.703125 -3.019531 11.40625 -4.1875 10.4375 -5.625 C 9.46875 -7.070312 8.984375 -8.820312 8.984375 -10.875 L 8.984375 -31.59375 C 8.984375 -32.488281 8.878906 -33.066406 8.671875 -33.328125 C 8.460938 -33.585938 8.015625 -33.71875 7.328125 -33.71875 L 7.328125 -34.671875 Z M 15.515625 -34.671875 "/></g></g></g><g fill="#eb6e66" fill-opacity="1"><g transform="translate(532.858623, 143.936304)"><g><path d="M 30.96875 -20.015625 C 32.800781 -20.015625 34.140625 -20.40625 34.984375 -21.1875 C 35.828125 -21.976562 36.25 -23.296875 36.25 -25.140625 C 36.25 -27.078125 35.828125 -28.46875 34.984375 -29.3125 C 34.140625 -30.15625 32.566406 -30.578125 30.265625 -30.578125 L 14.265625 -30.578125 L 14.265625 -20.015625 Z M 31.515625 -34.671875 C 34.671875 -34.671875 37.113281 -33.851562 38.84375 -32.21875 C 40.582031 -30.59375 41.453125 -28.179688 41.453125 -24.984375 C 41.453125 -21.929688 40.625 -19.628906 38.96875 -18.078125 C 37.3125 -16.535156 34.957031 -15.710938 31.90625 -15.609375 L 40.265625 -2.84375 C 40.679688 -2.207031 41.019531 -1.734375 41.28125 -1.421875 C 41.550781 -1.109375 41.972656 -0.953125 42.546875 -0.953125 L 42.546875 0 L 34.046875 0 L 34.046875 -0.953125 C 34.617188 -0.953125 34.96875 -1.003906 35.09375 -1.109375 C 35.226562 -1.210938 35.296875 -1.367188 35.296875 -1.578125 C 35.296875 -1.890625 35.007812 -2.519531 34.4375 -3.46875 L 26.71875 -15.609375 L 14.265625 -15.609375 L 14.265625 -3.15625 C 14.265625 -2.257812 14.378906 -1.664062 14.609375 -1.375 C 14.847656 -1.09375 15.390625 -0.953125 16.234375 -0.953125 L 16.234375 0 L 7.40625 0 L 7.40625 -0.953125 C 8.25 -0.953125 8.785156 -1.09375 9.015625 -1.375 C 9.253906 -1.664062 9.375 -2.257812 9.375 -3.15625 L 9.375 -31.515625 C 9.375 -32.460938 9.242188 -33.066406 8.984375 -33.328125 C 8.722656 -33.585938 8.195312 -33.71875 7.40625 -33.71875 L 7.40625 -34.671875 Z M 31.515625 -34.671875 "/></g></g></g><g fill="#eb6e66" fill-opacity="1"><g transform="translate(605.11253, 143.936304)"><g><path d="M 17.8125 -41.453125 L 17.8125 -40.5 C 17.019531 -40.5 16.503906 -40.300781 16.265625 -39.90625 C 16.035156 -39.507812 15.921875 -38.972656 15.921875 -38.296875 L 15.921875 -5.203125 L 42.390625 -5.203125 C 44.234375 -5.203125 45.15625 -5.988281 45.15625 -7.5625 L 46.09375 -7.5625 L 46.09375 1.734375 L 45.15625 1.734375 C 45.15625 1.046875 44.929688 0.582031 44.484375 0.34375 C 44.035156 0.113281 43.363281 0 42.46875 0 L 7.40625 0 L 7.40625 -0.953125 C 8.144531 -0.953125 8.644531 -1.117188 8.90625 -1.453125 C 9.164062 -1.796875 9.296875 -2.257812 9.296875 -2.84375 L 9.296875 -38.609375 C 9.296875 -39.128906 9.175781 -39.570312 8.9375 -39.9375 C 8.707031 -40.3125 8.195312 -40.5 7.40625 -40.5 L 7.40625 -41.453125 Z M 17.8125 -41.453125 "/></g></g></g><g fill="#eb6e66" fill-opacity="1"><g transform="translate(653.255517, 143.936304)"><g><path d="M 9.453125 -17.421875 C 9.453125 -15.472656 9.804688 -13.679688 10.515625 -12.046875 C 11.222656 -10.421875 12.21875 -9.003906 13.5 -7.796875 C 14.789062 -6.585938 16.328125 -5.640625 18.109375 -4.953125 C 19.898438 -4.273438 21.898438 -3.9375 24.109375 -3.9375 C 26.265625 -3.9375 28.25 -4.273438 30.0625 -4.953125 C 31.875 -5.640625 33.421875 -6.570312 34.703125 -7.75 C 35.992188 -8.9375 36.992188 -10.359375 37.703125 -12.015625 C 38.410156 -13.671875 38.765625 -15.472656 38.765625 -17.421875 C 38.765625 -19.203125 38.421875 -20.90625 37.734375 -22.53125 C 37.054688 -24.164062 36.085938 -25.585938 34.828125 -26.796875 C 33.566406 -28.003906 32.03125 -28.960938 30.21875 -29.671875 C 28.40625 -30.378906 26.34375 -30.734375 24.03125 -30.734375 C 21.875 -30.734375 19.898438 -30.390625 18.109375 -29.703125 C 16.328125 -29.023438 14.789062 -28.09375 13.5 -26.90625 C 12.21875 -25.726562 11.222656 -24.320312 10.515625 -22.6875 C 9.804688 -21.0625 9.453125 -19.304688 9.453125 -17.421875 Z M 24.109375 -35.140625 C 27.160156 -35.140625 29.90625 -34.664062 32.34375 -33.71875 C 34.789062 -32.78125 36.878906 -31.507812 38.609375 -29.90625 C 40.335938 -28.300781 41.660156 -26.40625 42.578125 -24.21875 C 43.503906 -22.039062 43.96875 -19.742188 43.96875 -17.328125 C 43.96875 -14.859375 43.492188 -12.535156 42.546875 -10.359375 C 41.597656 -8.179688 40.257812 -6.289062 38.53125 -4.6875 C 36.800781 -3.082031 34.710938 -1.820312 32.265625 -0.90625 C 29.828125 0.0078125 27.109375 0.46875 24.109375 0.46875 C 21.117188 0.46875 18.398438 0.0078125 15.953125 -0.90625 C 13.515625 -1.820312 11.425781 -3.082031 9.6875 -4.6875 C 7.957031 -6.289062 6.617188 -8.179688 5.671875 -10.359375 C 4.722656 -12.535156 4.25 -14.859375 4.25 -17.328125 C 4.25 -19.859375 4.734375 -22.210938 5.703125 -24.390625 C 6.679688 -26.566406 8.035156 -28.441406 9.765625 -30.015625 C 11.503906 -31.597656 13.59375 -32.847656 16.03125 -33.765625 C 18.476562 -34.679688 21.171875 -35.140625 24.109375 -35.140625 Z M 24.109375 -35.140625 "/></g></g></g><g fill="#eb6e66" fill-opacity="1"><g transform="translate(701.398549, 143.936304)"><g><path d="M 9.453125 -17.421875 C 9.453125 -15.472656 9.804688 -13.679688 10.515625 -12.046875 C 11.222656 -10.421875 12.21875 -9.003906 13.5 -7.796875 C 14.789062 -6.585938 16.328125 -5.640625 18.109375 -4.953125 C 19.898438 -4.273438 21.898438 -3.9375 24.109375 -3.9375 C 26.265625 -3.9375 28.25 -4.273438 30.0625 -4.953125 C 31.875 -5.640625 33.421875 -6.570312 34.703125 -7.75 C 35.992188 -8.9375 36.992188 -10.359375 37.703125 -12.015625 C 38.410156 -13.671875 38.765625 -15.472656 38.765625 -17.421875 C 38.765625 -19.203125 38.421875 -20.90625 37.734375 -22.53125 C 37.054688 -24.164062 36.085938 -25.585938 34.828125 -26.796875 C 33.566406 -28.003906 32.03125 -28.960938 30.21875 -29.671875 C 28.40625 -30.378906 26.34375 -30.734375 24.03125 -30.734375 C 21.875 -30.734375 19.898438 -30.390625 18.109375 -29.703125 C 16.328125 -29.023438 14.789062 -28.09375 13.5 -26.90625 C 12.21875 -25.726562 11.222656 -24.320312 10.515625 -22.6875 C 9.804688 -21.0625 9.453125 -19.304688 9.453125 -17.421875 Z M 24.109375 -35.140625 C 27.160156 -35.140625 29.90625 -34.664062 32.34375 -33.71875 C 34.789062 -32.78125 36.878906 -31.507812 38.609375 -29.90625 C 40.335938 -28.300781 41.660156 -26.40625 42.578125 -24.21875 C 43.503906 -22.039062 43.96875 -19.742188 43.96875 -17.328125 C 43.96875 -14.859375 43.492188 -12.535156 42.546875 -10.359375 C 41.597656 -8.179688 40.257812 -6.289062 38.53125 -4.6875 C 36.800781 -3.082031 34.710938 -1.820312 32.265625 -0.90625 C 29.828125 0.0078125 27.109375 0.46875 24.109375 0.46875 C 21.117188 0.46875 18.398438 0.0078125 15.953125 -0.90625 C 13.515625 -1.820312 11.425781 -3.082031 9.6875 -4.6875 C 7.957031 -6.289062 6.617188 -8.179688 5.671875 -10.359375 C 4.722656 -12.535156 4.25 -14.859375 4.25 -17.328125 C 4.25 -19.859375 4.734375 -22.210938 5.703125 -24.390625 C 6.679688 -26.566406 8.035156 -28.441406 9.765625 -30.015625 C 11.503906 -31.597656 13.59375 -32.847656 16.03125 -33.765625 C 18.476562 -34.679688 21.171875 -35.140625 24.109375 -35.140625 Z M 24.109375 -35.140625 "/></g></g></g><g fill="#eb6e66" fill-opacity="1"><g transform="translate(749.541536, 143.936304)"><g><path d="M 16.234375 -34.671875 L 16.234375 -33.71875 C 15.390625 -33.71875 14.847656 -33.570312 14.609375 -33.28125 C 14.378906 -33 14.265625 -32.410156 14.265625 -31.515625 L 14.265625 -19.546875 L 30.65625 -31.75 C 31.382812 -32.226562 31.75 -32.625 31.75 -32.9375 C 31.75 -33.457031 31.09375 -33.71875 29.78125 -33.71875 L 29.78125 -34.671875 L 41.765625 -34.671875 L 41.765625 -33.71875 C 40.765625 -33.71875 39.84375 -33.378906 39 -32.703125 L 25.84375 -22.765625 L 40.109375 -3.078125 C 40.679688 -2.285156 41.175781 -1.734375 41.59375 -1.421875 C 42.019531 -1.109375 42.628906 -0.953125 43.421875 -0.953125 L 43.421875 0 L 33.40625 0 L 33.40625 -0.953125 C 34.300781 -0.953125 34.851562 -1.003906 35.0625 -1.109375 C 35.269531 -1.210938 35.375 -1.367188 35.375 -1.578125 C 35.375 -1.941406 35.0625 -2.546875 34.4375 -3.390625 L 22.140625 -20.171875 L 14.265625 -14.03125 L 14.265625 -3.15625 C 14.265625 -2.257812 14.378906 -1.664062 14.609375 -1.375 C 14.847656 -1.09375 15.390625 -0.953125 16.234375 -0.953125 L 16.234375 0 L 7.40625 0 L 7.40625 -0.953125 C 8.25 -0.953125 8.785156 -1.09375 9.015625 -1.375 C 9.253906 -1.664062 9.375 -2.257812 9.375 -3.15625 L 9.375 -31.515625 C 9.375 -32.460938 9.242188 -33.066406 8.984375 -33.328125 C 8.722656 -33.585938 8.195312 -33.71875 7.40625 -33.71875 L 7.40625 -34.671875 Z M 16.234375 -34.671875 "/></g></g></g></svg>